<svg width="141" height="28" viewBox="0 0 141 28" fill="none" xmlns="http://www.w3.org/2000/svg">
<path d="M16.4429 3.59124L18.3697 7.65793C18.6855 8.32367 19.2953 8.78506 20.0008 8.89193L24.3099 9.54414C26.0865 9.81296 26.796 12.0866 25.5103 13.3918L22.3912 16.5568C21.8808 17.0751 21.6479 17.8219 21.7683 18.5537L22.5044 23.0233C22.8082 24.8662 20.9506 26.2712 19.3621 25.4014L15.5078 23.2923C14.8768 22.9467 14.1228 22.9467 13.4917 23.2923L9.63747 25.4028C8.04891 26.2726 6.19138 24.866 6.49519 23.0247L7.23121 18.5551C7.35223 17.8229 7.11909 17.0755 6.60831 16.5568L3.49007 13.3914C2.20433 12.0862 2.91382 9.81261 4.69041 9.54378L8.99951 8.89157C9.70509 8.78469 10.3148 8.32326 10.6307 7.65757L12.5567 3.5913C13.3521 1.91402 15.6475 1.91397 16.4429 3.59124Z" fill="#FFAE43"/>
<path d="M44.4429 3.59124L46.3697 7.65793C46.6855 8.32367 47.2953 8.78506 48.0008 8.89193L52.3099 9.54414C54.0865 9.81296 54.796 12.0866 53.5103 13.3918L50.3912 16.5568C49.8808 17.0751 49.6479 17.8219 49.7683 18.5537L50.5044 23.0233C50.8082 24.8662 48.9506 26.2712 47.3621 25.4014L43.5078 23.2923C42.8768 22.9467 42.1228 22.9467 41.4917 23.2923L37.6375 25.4028C36.0489 26.2726 34.1914 24.866 34.4952 23.0247L35.2312 18.5551C35.3522 17.8229 35.1191 17.0755 34.6083 16.5568L31.4901 13.3914C30.2043 12.0862 30.9138 9.81261 32.6904 9.54378L36.9995 8.89157C37.7051 8.78469 38.3148 8.32326 38.6307 7.65757L40.5567 3.5913C41.3521 1.91402 43.6475 1.91397 44.4429 3.59124Z" fill="#FFAE43"/>
<path d="M72.4429 3.59124L74.3697 7.65793C74.6855 8.32367 75.2953 8.78506 76.0008 8.89193L80.3099 9.54414C82.0865 9.81296 82.796 12.0866 81.5103 13.3918L78.3912 16.5568C77.8808 17.0751 77.6479 17.8219 77.7683 18.5537L78.5044 23.0233C78.8082 24.8662 76.9506 26.2712 75.3621 25.4014L71.5078 23.2923C70.8768 22.9467 70.1228 22.9467 69.4917 23.2923L65.6375 25.4028C64.0489 26.2726 62.1914 24.866 62.4952 23.0247L63.2312 18.5551C63.3522 17.8229 63.1191 17.0755 62.6083 16.5568L59.4901 13.3914C58.2043 12.0862 58.9138 9.81261 60.6904 9.54378L64.9995 8.89157C65.7051 8.78469 66.3148 8.32326 66.6307 7.65757L68.5567 3.5913C69.3521 1.91402 71.6475 1.91397 72.4429 3.59124Z" fill="#FFAE43"/>
<path d="M100.443 3.59124L102.37 7.65793C102.686 8.32367 103.295 8.78506 104.001 8.89193L108.31 9.54414C110.087 9.81296 110.796 12.0866 109.51 13.3918L106.391 16.5568C105.881 17.0751 105.648 17.8219 105.768 18.5537L106.504 23.0233C106.808 24.8662 104.951 26.2712 103.362 25.4014L99.5078 23.2923C98.8768 22.9467 98.1228 22.9467 97.4917 23.2923L93.6375 25.4028C92.0489 26.2726 90.1914 24.866 90.4952 23.0247L91.2312 18.5551C91.3522 17.8229 91.1191 17.0755 90.6083 16.5568L87.4901 13.3914C86.2043 12.0862 86.9138 9.81261 88.6904 9.54378L92.9995 8.89157C93.7051 8.78469 94.3148 8.32326 94.6307 7.65757L96.5567 3.5913C97.3521 1.91402 99.6475 1.91397 100.443 3.59124Z" fill="#FFAE43"/>
<path d="M128.443 3.59124L130.37 7.65793C130.686 8.32367 131.295 8.78506 132.001 8.89193L136.31 9.54414C138.087 9.81296 138.796 12.0866 137.51 13.3918L134.391 16.5568C133.881 17.0751 133.648 17.8219 133.768 18.5537L134.504 23.0233C134.808 24.8662 132.951 26.2712 131.362 25.4014L127.508 23.2923C126.877 22.9467 126.123 22.9467 125.492 23.2923L121.637 25.4028C120.049 26.2726 118.191 24.866 118.495 23.0247L119.231 18.5551C119.352 17.8229 119.119 17.0755 118.608 16.5568L115.49 13.3914C114.204 12.0862 114.914 9.81261 116.69 9.54378L121 8.89157C121.705 8.78469 122.315 8.32326 122.631 7.65757L124.557 3.5913C125.352 1.91402 127.647 1.91397 128.443 3.59124Z" fill="#DAE0E6"/>
</svg>
